<mxfile host="Electron" agent="Mozilla/5.0 (Windows NT 10.0; Win64; x64) AppleWebKit/537.36 (KHTML, like Gecko) draw.io/28.0.6 Chrome/138.0.7204.100 Electron/37.2.3 Safari/537.36" version="28.0.6">
  <diagram name="Page-1" id="gTpdgMT1deryU2rmnkwg">
    <mxGraphModel dx="1188" dy="841" grid="1" gridSize="10" guides="1" tooltips="1" connect="1" arrows="1" fold="1" page="1" pageScale="1" pageWidth="850" pageHeight="1100" math="0" shadow="0">
      <root>
        <mxCell id="0" />
        <mxCell id="1" parent="0" />
        <mxCell id="3g_RUgu9k_-8N1ykwgyM-1" value="Internet" style="verticalLabelPosition=middle;sketch=0;aspect=fixed;html=1;verticalAlign=middle;strokeColor=none;align=center;outlineConnect=0;shape=mxgraph.citrix.cloud;labelPosition=center;fontSize=28;" vertex="1" parent="1">
          <mxGeometry x="250" y="220" width="321.78" height="210" as="geometry" />
        </mxCell>
        <mxCell id="3g_RUgu9k_-8N1ykwgyM-2" value="Etätyöpöytä" style="verticalLabelPosition=top;sketch=0;aspect=fixed;html=1;verticalAlign=bottom;strokeColor=none;align=center;outlineConnect=0;shape=mxgraph.citrix.desktop;labelPosition=center;fontSize=20;" vertex="1" parent="1">
          <mxGeometry x="110" y="70" width="89" height="98" as="geometry" />
        </mxCell>
        <mxCell id="3g_RUgu9k_-8N1ykwgyM-3" style="edgeStyle=orthogonalEdgeStyle;rounded=0;orthogonalLoop=1;jettySize=auto;html=1;entryX=0.528;entryY=0.095;entryDx=0;entryDy=0;entryPerimeter=0;curved=1;endArrow=none;endFill=0;" edge="1" parent="1" source="3g_RUgu9k_-8N1ykwgyM-2" target="3g_RUgu9k_-8N1ykwgyM-1">
          <mxGeometry relative="1" as="geometry" />
        </mxCell>
        <mxCell id="3g_RUgu9k_-8N1ykwgyM-7" value="Palomuuri" style="verticalLabelPosition=middle;sketch=0;aspect=fixed;html=1;verticalAlign=middle;strokeColor=none;align=left;outlineConnect=0;shape=mxgraph.citrix.firewall;labelPosition=right;" vertex="1" parent="1">
          <mxGeometry x="385" y="540" width="75" height="93" as="geometry" />
        </mxCell>
        <mxCell id="3g_RUgu9k_-8N1ykwgyM-29" style="edgeStyle=orthogonalEdgeStyle;shape=connector;curved=1;rounded=0;orthogonalLoop=1;jettySize=auto;html=1;strokeColor=default;align=center;verticalAlign=middle;fontFamily=Helvetica;fontSize=11;fontColor=default;labelBackgroundColor=default;endArrow=none;endFill=0;" edge="1" parent="1" source="3g_RUgu9k_-8N1ykwgyM-8" target="3g_RUgu9k_-8N1ykwgyM-7">
          <mxGeometry relative="1" as="geometry" />
        </mxCell>
        <mxCell id="3g_RUgu9k_-8N1ykwgyM-30" style="edgeStyle=orthogonalEdgeStyle;shape=connector;curved=1;rounded=0;orthogonalLoop=1;jettySize=auto;html=1;strokeColor=default;align=center;verticalAlign=middle;fontFamily=Helvetica;fontSize=11;fontColor=default;labelBackgroundColor=default;endArrow=none;endFill=0;" edge="1" parent="1" source="3g_RUgu9k_-8N1ykwgyM-8" target="3g_RUgu9k_-8N1ykwgyM-17">
          <mxGeometry relative="1" as="geometry" />
        </mxCell>
        <mxCell id="3g_RUgu9k_-8N1ykwgyM-8" value="Lähiverkko&lt;div&gt;192.168.196.0/24&lt;/div&gt;" style="verticalLabelPosition=bottom;sketch=0;aspect=fixed;html=1;verticalAlign=top;strokeColor=none;align=center;outlineConnect=0;shape=mxgraph.citrix.switch;" vertex="1" parent="1">
          <mxGeometry x="264" y="650" width="92" height="41.5" as="geometry" />
        </mxCell>
        <mxCell id="3g_RUgu9k_-8N1ykwgyM-27" style="edgeStyle=orthogonalEdgeStyle;shape=connector;curved=1;rounded=0;orthogonalLoop=1;jettySize=auto;html=1;strokeColor=default;align=center;verticalAlign=middle;fontFamily=Helvetica;fontSize=11;fontColor=default;labelBackgroundColor=default;endArrow=none;endFill=0;" edge="1" parent="1" source="3g_RUgu9k_-8N1ykwgyM-9" target="3g_RUgu9k_-8N1ykwgyM-1">
          <mxGeometry relative="1" as="geometry">
            <Array as="points">
              <mxPoint x="318" y="460" />
              <mxPoint x="411" y="460" />
            </Array>
          </mxGeometry>
        </mxCell>
        <mxCell id="3g_RUgu9k_-8N1ykwgyM-9" value="reititn" style="verticalLabelPosition=bottom;sketch=0;aspect=fixed;html=1;verticalAlign=top;strokeColor=none;align=center;outlineConnect=0;shape=mxgraph.citrix.router;" vertex="1" parent="1">
          <mxGeometry x="270" y="483.5" width="55" height="36.5" as="geometry" />
        </mxCell>
        <mxCell id="3g_RUgu9k_-8N1ykwgyM-31" style="edgeStyle=orthogonalEdgeStyle;shape=connector;curved=1;rounded=0;orthogonalLoop=1;jettySize=auto;html=1;strokeColor=default;align=center;verticalAlign=middle;fontFamily=Helvetica;fontSize=11;fontColor=default;labelBackgroundColor=default;endArrow=none;endFill=0;" edge="1" parent="1" source="3g_RUgu9k_-8N1ykwgyM-10" target="3g_RUgu9k_-8N1ykwgyM-8">
          <mxGeometry relative="1" as="geometry" />
        </mxCell>
        <mxCell id="3g_RUgu9k_-8N1ykwgyM-10" value="" style="verticalLabelPosition=bottom;sketch=0;aspect=fixed;html=1;verticalAlign=top;strokeColor=none;align=center;outlineConnect=0;shape=mxgraph.citrix.desktop;" vertex="1" parent="1">
          <mxGeometry x="40" y="920" width="89" height="98" as="geometry" />
        </mxCell>
        <mxCell id="3g_RUgu9k_-8N1ykwgyM-23" style="edgeStyle=orthogonalEdgeStyle;rounded=0;orthogonalLoop=1;jettySize=auto;html=1;curved=1;endArrow=none;endFill=0;" edge="1" parent="1" source="3g_RUgu9k_-8N1ykwgyM-11" target="3g_RUgu9k_-8N1ykwgyM-8">
          <mxGeometry relative="1" as="geometry" />
        </mxCell>
        <mxCell id="3g_RUgu9k_-8N1ykwgyM-11" value="" style="verticalLabelPosition=bottom;sketch=0;aspect=fixed;html=1;verticalAlign=top;strokeColor=none;align=center;outlineConnect=0;shape=mxgraph.citrix.desktop;" vertex="1" parent="1">
          <mxGeometry x="50" y="760" width="89" height="98" as="geometry" />
        </mxCell>
        <mxCell id="3g_RUgu9k_-8N1ykwgyM-17" value="Langattoman verkon&amp;nbsp;&lt;div&gt;tukiasema&lt;/div&gt;" style="image;html=1;image=img/lib/clip_art/networking/Wireless_Router_N_128x128.png" vertex="1" parent="1">
          <mxGeometry x="160" y="526.5" width="80" height="80" as="geometry" />
        </mxCell>
        <mxCell id="3g_RUgu9k_-8N1ykwgyM-19" value="Tablet-Tietokone" style="verticalLabelPosition=bottom;sketch=0;aspect=fixed;html=1;verticalAlign=top;strokeColor=none;align=center;outlineConnect=0;shape=mxgraph.citrix.tablet_2;" vertex="1" parent="1">
          <mxGeometry x="116.84" y="370" width="75.32" height="79" as="geometry" />
        </mxCell>
        <mxCell id="3g_RUgu9k_-8N1ykwgyM-22" value="" style="group" vertex="1" connectable="0" parent="1">
          <mxGeometry x="410" y="760" width="430" height="330" as="geometry" />
        </mxCell>
        <mxCell id="3g_RUgu9k_-8N1ykwgyM-13" value="Debian 13" style="rounded=0;whiteSpace=wrap;html=1;labelPosition=center;verticalLabelPosition=top;align=center;verticalAlign=bottom;fillColor=#fff2cc;strokeColor=#d6b656;" vertex="1" parent="3g_RUgu9k_-8N1ykwgyM-22">
          <mxGeometry width="430" height="330" as="geometry" />
        </mxCell>
        <mxCell id="3g_RUgu9k_-8N1ykwgyM-14" value="PostgreSQL 13" style="verticalLabelPosition=bottom;sketch=0;aspect=fixed;html=1;verticalAlign=top;strokeColor=none;align=center;outlineConnect=0;shape=mxgraph.citrix.database_server;" vertex="1" parent="3g_RUgu9k_-8N1ykwgyM-22">
          <mxGeometry x="320" y="30" width="97.77" height="110" as="geometry" />
        </mxCell>
        <mxCell id="3g_RUgu9k_-8N1ykwgyM-15" value="NGINX" style="verticalLabelPosition=bottom;sketch=0;aspect=fixed;html=1;verticalAlign=top;strokeColor=none;align=center;outlineConnect=0;shape=mxgraph.citrix.web_server;" vertex="1" parent="3g_RUgu9k_-8N1ykwgyM-22">
          <mxGeometry x="20" y="20" width="93.5" height="110" as="geometry" />
        </mxCell>
        <mxCell id="3g_RUgu9k_-8N1ykwgyM-16" value="Django" style="verticalLabelPosition=bottom;sketch=0;aspect=fixed;html=1;verticalAlign=top;strokeColor=none;align=center;outlineConnect=0;shape=mxgraph.citrix.web_service;" vertex="1" parent="3g_RUgu9k_-8N1ykwgyM-22">
          <mxGeometry x="183.5" y="210" width="63" height="60" as="geometry" />
        </mxCell>
        <mxCell id="3g_RUgu9k_-8N1ykwgyM-21" value="Guricorn" style="verticalLabelPosition=bottom;sketch=0;aspect=fixed;html=1;verticalAlign=top;strokeColor=none;align=center;outlineConnect=0;shape=mxgraph.citrix.web_server;" vertex="1" parent="3g_RUgu9k_-8N1ykwgyM-22">
          <mxGeometry x="160" y="20" width="93.5" height="110" as="geometry" />
        </mxCell>
        <mxCell id="3g_RUgu9k_-8N1ykwgyM-26" style="edgeStyle=orthogonalEdgeStyle;shape=connector;curved=1;rounded=0;orthogonalLoop=1;jettySize=auto;html=1;entryX=0.716;entryY=0;entryDx=0;entryDy=0;entryPerimeter=0;strokeColor=default;align=center;verticalAlign=middle;fontFamily=Helvetica;fontSize=11;fontColor=default;labelBackgroundColor=default;endArrow=none;endFill=0;" edge="1" parent="1" source="3g_RUgu9k_-8N1ykwgyM-8" target="3g_RUgu9k_-8N1ykwgyM-13">
          <mxGeometry relative="1" as="geometry" />
        </mxCell>
        <mxCell id="3g_RUgu9k_-8N1ykwgyM-28" style="edgeStyle=orthogonalEdgeStyle;shape=connector;curved=1;rounded=0;orthogonalLoop=1;jettySize=auto;html=1;entryX=-0.067;entryY=0.43;entryDx=0;entryDy=0;entryPerimeter=0;strokeColor=default;align=center;verticalAlign=middle;fontFamily=Helvetica;fontSize=11;fontColor=default;labelBackgroundColor=default;endArrow=none;endFill=0;" edge="1" parent="1" source="3g_RUgu9k_-8N1ykwgyM-9" target="3g_RUgu9k_-8N1ykwgyM-7">
          <mxGeometry relative="1" as="geometry" />
        </mxCell>
      </root>
    </mxGraphModel>
  </diagram>
</mxfile>
